<?xml version="1.0" encoding="utf-8"?>
<!-- Generator: Adobe Illustrator 26.3.1, SVG Export Plug-In . SVG Version: 6.00 Build 0)  -->
<svg version="1.1" id="Layer_1" xmlns="http://www.w3.org/2000/svg" xmlns:xlink="http://www.w3.org/1999/xlink" x="0px" y="0px"
	 viewBox="0 0 841.89 595.28" style="enable-background:new 0 0 841.89 595.28;" xml:space="preserve">
<style type="text/css">
	.st0{fill:#FFFFFF;}
</style>
<g>
	<g>
		<path class="st0" d="M336.76,307.86c-3.79,7.35-7.69,14.65-11.35,22.06c-2.07,4.19-5.02,6.09-9.84,6.03
			c-14.43-0.18-13.28,0.69-12.99-12.8c0.43-20.29,0.84-40.59,1.16-60.89c0.07-4.48,1.64-6.79,6.52-6.31
			c3.3,0.32,6.65,0.12,9.98,0.06c3.35-0.05,4.6,1.33,4.52,4.83c-0.27,11.43-0.14,22.86-1.17,35.31c3.91-5.23,5.75-10.41,7.72-15.36
			c2.18-5.48,5.33-7.54,11.3-7.2c11.07,0.64,10.87-1.73,11.25,10.64c0.12,3.76,0.67,7.51,1.12,12.19
			c4.96-12.2,9.8-23.56,14.15-35.11c1.5-4,3.75-5.49,7.77-5.3c3.49,0.17,7,0.19,10.49-0.02c4.75-0.28,4.39,2.28,3.17,5.34
			c-4.88,12.16-9.81,24.3-14.72,36.45c-4.28,10.59-8.7,21.13-12.8,31.8c-1.74,4.54-4.53,6.41-9.4,6.32
			c-13.41-0.25-12.73,2.01-14.23-13.16c-0.49-4.95-1.09-9.9-1.64-14.85C337.43,307.89,337.1,307.88,336.76,307.86z"/>
		<path class="st0" d="M281.17,280.24c-5.35,0.54-9.94-0.26-14.02-4.57c-3.3-3.48-13.67-2.9-17.49,0.05
			c-3.21,2.47-2.99,6.08,0.61,7.95c4.34,2.25,9.18,2.88,13.88,3.88c4.06,0.86,8.1,1.75,11.91,3.45
			c10.05,4.49,13.51,11.39,11.14,22.14c-1.86,8.47-6.39,15.26-14.22,18.8c-14.56,6.6-29.55,7.76-44.25,0.28
			c-5.93-3.02-10.43-7.78-12.01-14.58c-1.17-5.05,0.32-6.83,5.44-6.94c2.83-0.06,5.68,0.18,8.49-0.06c4.12-0.35,7.17,0.82,9.97,4.15
			c4.09,4.87,18.55,5.11,23.28,0.87c2.77-2.48,2.47-5.54-1.06-7.04c-3.19-1.36-6.63-2.15-10-3.06c-2.72-0.74-5.5-1.29-8.25-1.9
			c-8.22-1.82-16.29-4.43-18.43-13.72c-2.27-9.87,0.68-18.63,7.99-25.94c10.22-10.23,39.27-14.01,52.68,0.73
			c2.28,2.5,4.1,5.22,4.92,8.53c1.29,5.19,0.13,6.79-5.1,6.99C284.83,280.29,283,280.24,281.17,280.24z"/>
		<path class="st0" d="M445.37,335.88c-1.17,0-2.36-0.16-3.49,0.03c-5.37,0.88-7.37-2.01-7.21-6.74c0.15-4.48-1.49-6.01-6.09-5.72
			c-6.97,0.43-13.99,0.26-20.99,0.05c-2.72-0.08-4.53,0.58-5.33,3.24c-2.4,7.91-7.88,9.65-15.69,9.33
			c-13.79-0.57-12.97,0.56-6.55-11.01c11.69-21.08,23.59-42.05,35.22-63.16c2.27-4.11,5.01-6.22,9.86-5.92
			c5.15,0.32,10.33,0.23,15.49,0.01c3.79-0.16,5.54,1.67,5.99,5.11c2.69,20.28,5.36,40.56,8.03,60.85c0.35,2.63,0.78,5.26,1,7.9
			c0.49,6.03,0.36,6.12-5.74,6.08c-1.5-0.01-3,0-4.5,0C445.37,335.91,445.37,335.89,445.37,335.88z M428.45,279.12
			c-3.03,5.48-5.45,9.6-7.61,13.84c-2.11,4.15-5.07,7.92-6.55,12.88c5.13,0,9.75-0.11,14.35,0.04c2.47,0.08,3.18-0.77,2.85-3.19
			C430.45,295.34,429.57,287.95,428.45,279.12z"/>
		<path class="st0" d="M503.02,256.2c5.16,0,10.34-0.26,15.48,0.05c14,0.84,23.32,8.18,24.52,19.01
			c1.61,14.47-6.91,28.38-19.72,32.26c-9.11,2.76-18.48,2.09-27.78,1.99c-3.18-0.03-4.7,0.62-5.23,4.11
			c-0.89,5.88-2.49,11.65-3.69,17.49c-0.67,3.27-2.42,4.89-5.87,4.78c-3.66-0.12-7.33-0.12-10.99,0.01c-4,0.14-5.28-1.26-4.36-5.41
			c3.7-16.67,7.13-33.4,10.66-50.11c1.23-5.83,2.66-11.63,3.65-17.51c0.83-4.9,3.01-7.32,8.34-6.88c4.96,0.41,9.99,0.09,14.98,0.09
			C503.02,256.12,503.02,256.16,503.02,256.2z M504.12,291.58c4.43-0.05,8.96,0.52,12.98-2.11c3.74-2.44,5.28-6.01,4.49-10.24
			c-0.79-4.27-4.43-4.9-8.05-5.07c-2.15-0.1-4.31-0.03-6.46-0.02c-8.46,0.02-8.46,0.02-10.27,8.17
			C494.76,291.58,494.76,291.58,504.12,291.58z"/>
		<path class="st0" d="M583.05,256.2c5.16,0,10.34-0.26,15.48,0.05c14,0.84,23.32,8.18,24.52,19.01
			c1.61,14.47-6.91,28.38-19.72,32.26c-9.11,2.76-18.48,2.09-27.78,1.99c-3.18-0.03-4.7,0.62-5.23,4.11
			c-0.89,5.88-2.49,11.65-3.69,17.49c-0.67,3.27-2.42,4.89-5.87,4.78c-3.66-0.12-7.33-0.12-10.99,0.01c-4,0.14-5.28-1.26-4.36-5.41
			c3.7-16.67,7.13-33.4,10.66-50.11c1.23-5.83,2.66-11.63,3.65-17.51c0.83-4.9,3.01-7.32,8.34-6.88c4.96,0.41,9.99,0.09,14.98,0.09
			C583.05,256.12,583.05,256.16,583.05,256.2z M584.15,291.58c4.43-0.05,8.96,0.52,12.98-2.11c3.74-2.44,5.28-6.01,4.49-10.24
			c-0.79-4.27-4.43-4.9-8.05-5.07c-2.15-0.1-4.31-0.03-6.46-0.02c-8.46,0.02-8.46,0.02-10.27,8.17
			C574.79,291.57,574.79,291.57,584.15,291.58z"/>
		<path class="st0" d="M428.45,279.12c1.12,8.82,2,16.21,3.03,23.58c0.34,2.41-0.37,3.27-2.85,3.19c-4.6-0.15-9.22-0.04-14.35-0.04
			c1.49-4.96,4.44-8.73,6.55-12.88C423,288.72,425.42,284.6,428.45,279.12z"/>
		<path class="st0" d="M504.12,291.58c-9.36-0.01-9.36-0.01-7.31-9.27c1.8-8.15,1.8-8.15,10.27-8.17c2.15-0.01,4.31-0.08,6.46,0.02
			c3.62,0.17,7.26,0.8,8.05,5.07c0.79,4.23-0.75,7.8-4.49,10.24C513.08,292.1,508.55,291.53,504.12,291.58z"/>
		<g>
			<path class="st0" d="M628.27,259.96h27.58l16.19,27.11l16.22-27.11h27.44l-31.25,46.71v33.66h-24.89v-33.66L628.27,259.96z"/>
		</g>
	</g>
	<g>
		<path class="st0" d="M168.57,344.57c0.94,0.47,2.07,0.38,2.91-0.25l31.56-23.29c0.71-0.53,1.13-1.35,1.13-2.24
			c0-0.89-0.42-1.71-1.13-2.24l-31.56-23.43c-0.84-0.62-1.98-0.72-2.91-0.25c-0.94,0.47-1.53,1.44-1.53,2.49v9.37h-38.07
			c-0.74,0-1.45,0.3-1.97,0.82c-0.52,0.52-0.81,1.24-0.81,1.97v22.41c0,0.73,0.3,1.45,0.81,1.97c0.52,0.52,1.24,0.82,1.97,0.82
			h38.07v9.37C167.04,343.13,167.63,344.1,168.57,344.57z"/>
		<path class="st0" d="M161.71,250.69c-0.88-0.45-1.95-0.36-2.75,0.23l-31.56,23.29c-0.67,0.5-1.07,1.28-1.07,2.12
			c0,0.84,0.39,1.62,1.06,2.12l31.56,23.43c0.8,0.59,1.87,0.69,2.76,0.24c0.89-0.45,1.45-1.36,1.45-2.35v-9.52h41.36
			c0.69,0,1.37-0.28,1.86-0.77c0.49-0.49,0.77-1.17,0.77-1.86V265.2c0-0.69-0.28-1.37-0.77-1.86c-0.49-0.49-1.17-0.77-1.86-0.77
			h-41.36v-9.52C163.16,252.05,162.6,251.13,161.71,250.69z"/>
	</g>
</g>
</svg>
